<svg width="18" height="21" viewBox="0 0 18 21" fill="none" xmlns="http://www.w3.org/2000/svg">
<g clip-path="url(#clip0_312_20817)">
<path d="M5.9109 21H5.56302C5.5518 20.9956 5.54024 20.9922 5.52846 20.9896C5.43868 20.9768 5.34588 20.9738 5.25913 20.9507C5.04255 20.8934 4.83079 20.8197 4.63677 20.7069C4.49941 20.6271 4.36352 20.5439 4.23346 20.4536C4.13178 20.3828 4.03819 20.3003 3.9446 20.2192C3.8371 20.126 3.72768 20.0338 3.62938 19.9316C3.48002 19.7765 3.33874 19.6136 3.19532 19.4528C3.12417 19.3731 3.0537 19.2925 2.98715 19.209C2.89614 19.095 2.80962 18.9777 2.72052 18.8624C2.63366 18.75 2.54344 18.6399 2.45928 18.5256C2.37949 18.4172 2.3052 18.3053 2.22923 18.1939C2.16695 18.1028 2.10466 18.0118 2.0444 17.9195C1.97977 17.8205 1.91647 17.7206 1.85453 17.62C1.76801 17.4795 1.67835 17.3404 1.59878 17.196C1.49247 17.003 1.39092 16.8075 1.29411 16.6095C1.20501 16.4266 1.12354 16.24 1.04285 16.0533C0.982477 15.9134 0.92861 15.7708 0.872051 15.6292C0.824134 15.509 0.773415 15.3896 0.729762 15.2678C0.6796 15.1277 0.635498 14.9856 0.589713 14.8439C0.543928 14.7023 0.494664 14.5604 0.45505 14.4164C0.398941 14.2131 0.347433 14.009 0.297944 13.8032C0.261473 13.6505 0.229264 13.4964 0.200312 13.342C0.165748 13.1575 0.134253 12.9723 0.105824 12.7867C0.0534181 12.4411 0.00415363 12.0951 0.009989 11.7442C0.00842657 11.7289 0.00507385 11.7138 0 11.6993V10.9617C0.00509799 10.949 0.00845821 10.9358 0.009989 10.9222C0.000674847 10.5597 0.0701383 10.2051 0.122208 9.84885C0.141545 9.70963 0.169466 9.57168 0.205813 9.43577C0.269441 9.20451 0.338455 8.97423 0.415774 8.74704C0.470788 8.58959 0.534472 8.43519 0.606546 8.28451C0.678141 8.13188 0.759612 7.98343 0.842205 7.8363C0.921656 7.69512 1.00369 7.55482 1.09335 7.41992C1.18301 7.28501 1.27974 7.15561 1.37928 7.02897C1.44956 6.94039 1.52448 6.85544 1.60372 6.77447C1.72144 6.65256 1.84118 6.53219 1.96484 6.41612C2.06012 6.32681 2.16133 6.24311 2.26301 6.16085C2.32899 6.10744 2.40025 6.06052 2.46994 6.01174C2.53783 5.96416 2.6046 5.91527 2.67552 5.87177C2.75463 5.82287 2.83757 5.77981 2.91848 5.73367C3.00298 5.68566 3.084 5.63059 3.17198 5.59051C3.33417 5.51584 3.49876 5.4461 3.66574 5.38127C3.81881 5.3218 3.97311 5.26255 4.13156 5.22048C4.32061 5.16929 4.51262 5.12932 4.70657 5.10078C4.95693 5.06554 5.20931 5.03679 5.4618 5.02567C5.79711 5.01091 6.1249 5.07765 6.44933 5.15562C6.62888 5.19879 6.80764 5.24603 6.98551 5.29592C7.08998 5.32521 7.19255 5.36134 7.29478 5.39757C7.48106 5.46364 7.66578 5.53335 7.85229 5.59844C8.02061 5.65735 8.19085 5.7144 8.36153 5.7677C8.53222 5.821 8.70077 5.87265 8.87291 5.91527C8.9747 5.94049 9.08377 5.96747 9.18533 5.95657C9.33705 5.94016 9.48585 5.89379 9.63421 5.8547C9.73419 5.82838 9.83182 5.79347 9.93001 5.76087C10.1189 5.69821 10.3077 5.63566 10.4958 5.5709C10.6839 5.50615 10.8704 5.43479 11.0599 5.37268C11.2597 5.3077 11.4616 5.24846 11.6637 5.19097C11.7845 5.1565 11.9075 5.12919 12.03 5.10067C12.222 5.05699 12.4162 5.02353 12.6119 5.00045C12.9745 4.95552 13.3344 4.97612 13.6939 5.01147C13.9007 5.03151 14.1053 5.07402 14.3099 5.11179C14.4357 5.1335 14.5601 5.16255 14.6824 5.19879C14.892 5.26387 15.1017 5.33094 15.3053 5.41199C15.4795 5.48148 15.6452 5.57135 15.8141 5.65339C15.9811 5.73444 16.1351 5.83565 16.2864 5.94203C16.4508 6.05744 16.6112 6.17693 16.754 6.31822C16.8358 6.39894 16.9224 6.47504 17.005 6.5551C17.0467 6.59562 17.0852 6.63957 17.1231 6.68362C17.163 6.72987 17.2006 6.77788 17.2387 6.82546C17.2959 6.8966 17.354 6.9673 17.4093 7.03998C17.4247 7.06014 17.4345 7.0858 17.4008 7.1043C17.3623 7.12522 17.3242 7.14736 17.2874 7.17103C17.1679 7.24812 17.0442 7.31937 16.9312 7.4045C16.7895 7.51132 16.6543 7.62673 16.5212 7.74391C16.4148 7.83762 16.3119 7.93597 16.2147 8.03882C16.1075 8.15225 16.0015 8.26778 15.908 8.39211C15.7944 8.54149 15.6902 8.6975 15.5958 8.85926C15.5091 9.01046 15.4413 9.17246 15.3696 9.33159C15.2804 9.52982 15.209 9.73366 15.1721 9.94829C15.1434 10.1154 15.1104 10.2819 15.0848 10.4495C15.0439 10.7164 15.0399 10.985 15.0506 11.2545C15.063 11.5859 15.0996 11.9153 15.1833 12.2355C15.2405 12.4548 15.3221 12.6685 15.4016 12.8816C15.4414 12.9884 15.4958 13.0908 15.5526 13.1907C15.6397 13.3437 15.7322 13.4936 15.8268 13.6422C15.8763 13.7209 15.9302 13.7967 15.9884 13.8694C16.0557 13.9538 16.1271 14.0362 16.2028 14.1137C16.3463 14.2605 16.491 14.4065 16.6416 14.5463C16.7249 14.6234 16.8198 14.6894 16.9119 14.7567C17.0325 14.8448 17.1515 14.9369 17.2784 15.0161C17.4072 15.0962 17.5438 15.1644 17.6786 15.2348C17.7713 15.2831 17.8653 15.3296 17.9616 15.3702C18.0022 15.3873 18.0065 15.4067 17.9927 15.4407C17.9641 15.5117 17.9342 15.5823 17.9078 15.6541C17.8675 15.7627 17.8335 15.8736 17.7899 15.9809C17.7168 16.1609 17.6387 16.3391 17.5615 16.5176C17.5471 16.5507 17.5259 16.5814 17.5106 16.6144C17.4734 16.6949 17.4401 16.7772 17.4009 16.8567C17.3402 16.9792 17.2759 17.0998 17.2128 17.2211C17.1801 17.2839 17.1492 17.3476 17.1135 17.4083C17.0605 17.4992 17.0039 17.5879 16.949 17.6777C16.8704 17.8055 16.7953 17.9354 16.7133 18.0607C16.6393 18.1731 16.558 18.281 16.4792 18.3901C16.3838 18.5222 16.2884 18.6552 16.1915 18.7866C16.0945 18.9179 15.9963 19.0448 15.896 19.172C15.7828 19.3152 15.6684 19.4575 15.5506 19.597C15.4811 19.6792 15.4064 19.7579 15.3293 19.8334C15.1979 19.962 15.0653 20.0898 14.9281 20.2125C14.8394 20.2938 14.7448 20.3687 14.645 20.4367C14.5112 20.5257 14.3703 20.6046 14.2306 20.6848C14.0909 20.765 13.9388 20.8197 13.7832 20.8672C13.595 20.9244 13.4003 20.9587 13.2035 20.9694C12.8535 20.9894 12.5141 20.9303 12.1772 20.8501C12.0585 20.8218 11.9415 20.7856 11.8257 20.7463C11.6545 20.6881 11.4855 20.6238 11.3154 20.5625C11.1452 20.5013 10.9726 20.4362 10.7991 20.3797C10.6781 20.3403 10.5533 20.3121 10.4301 20.2795C10.2357 20.2299 10.0376 20.1951 9.83777 20.1753C9.51234 20.1405 9.18993 20.1578 8.86787 20.1907C8.68832 20.2089 8.51022 20.2553 8.33292 20.2946C8.21742 20.3201 8.10333 20.3515 7.9911 20.3884C7.80571 20.45 7.62268 20.5184 7.43865 20.5841C7.27245 20.6435 7.10726 20.7053 6.93995 20.7619C6.81752 20.8031 6.69306 20.8408 6.56805 20.872C6.4372 20.905 6.30423 20.9303 6.1717 20.9564C6.08529 20.9734 5.99798 20.9857 5.9109 21Z" fill="white"/>
<path d="M9.01409 4.95721C9.01039 4.77902 8.99905 4.60161 9.00522 4.42497C9.01197 4.25877 9.02812 4.09307 9.05359 3.92863C9.07098 3.81168 9.10611 3.69737 9.13708 3.58229C9.17075 3.45983 9.20059 3.33605 9.24515 3.21744C9.29755 3.07813 9.36298 2.94356 9.4247 2.80766C9.46038 2.72859 9.49652 2.64941 9.53781 2.57298C9.58068 2.49303 9.62927 2.41594 9.67764 2.33886C9.72713 2.25912 9.77617 2.17884 9.83048 2.10209C9.88592 2.02357 9.9464 1.94846 10.0064 1.87302C10.0786 1.78195 10.149 1.68911 10.2275 1.60278C10.3017 1.52018 10.3833 1.44386 10.4624 1.36567C10.4999 1.32845 10.5375 1.29101 10.5782 1.25742C10.7005 1.15644 10.8217 1.0538 10.9485 0.958429C11.0589 0.875394 11.1746 0.798747 11.2911 0.723971C11.3584 0.680582 11.4323 0.646002 11.5034 0.608119C11.5978 0.558012 11.6906 0.504491 11.7875 0.459559C11.8925 0.410994 12.0016 0.371459 12.1086 0.326527C12.1377 0.314413 12.1647 0.297454 12.1946 0.286882C12.3165 0.242832 12.4368 0.192284 12.5619 0.160237C12.7448 0.113434 12.9309 0.0778632 13.1166 0.042623C13.2187 0.0232408 13.3227 0.0141004 13.426 0.000995448C13.4447 -6.29522e-06 13.4634 -6.29522e-06 13.4821 0.000995448C13.4894 0.0807265 13.5003 0.159907 13.5032 0.239418C13.5144 0.549642 13.4959 0.858104 13.4312 1.16238C13.4011 1.30466 13.3596 1.44452 13.3277 1.58648C13.2886 1.75992 13.2235 1.92379 13.1459 2.08325C13.0682 2.24272 12.9957 2.40108 12.9096 2.55393C12.8395 2.67859 12.7548 2.79555 12.6729 2.91349C12.5973 3.0223 12.5191 3.12919 12.4382 3.23418C12.3933 3.2931 12.3398 3.34629 12.2907 3.40245C12.2464 3.453 12.2039 3.5052 12.1583 3.55464C12.1192 3.59704 12.077 3.6368 12.0356 3.67721C11.9976 3.71433 11.9595 3.75111 11.9206 3.78734C11.8324 3.86938 11.7469 3.95484 11.6541 4.03149C11.5547 4.11364 11.4504 4.1904 11.3442 4.26408C11.2222 4.34876 11.1009 4.43609 10.9704 4.50635C10.8093 4.594 10.6428 4.67165 10.4718 4.73883C10.3054 4.80336 10.1338 4.86184 9.95908 4.89719C9.65418 4.95886 9.3457 5.00104 9.01409 4.95721Z" fill="white"/>
</g>
<defs>
<clipPath id="clip0_312_20817">
<rect width="18" height="21" fill="white"/>
</clipPath>
</defs>
</svg>
