<svg width="17" height="17" viewBox="0 0 17 17" fill="none" xmlns="http://www.w3.org/2000/svg">
<g clip-path="url(#clip0_353_230)">
<path d="M15.2292 2.83331H13.6945V3.77776H15.1111V14.1666H1.8889V3.77776H3.30557V2.83331H1.77085C1.66046 2.83516 1.55151 2.85873 1.45024 2.90269C1.34896 2.94664 1.25734 3.01012 1.1806 3.08949C1.10386 3.16886 1.0435 3.26257 1.00299 3.36527C0.96247 3.46797 0.942581 3.57765 0.944457 3.68804V14.2564C0.942581 14.3668 0.96247 14.4764 1.00299 14.5791C1.0435 14.6818 1.10386 14.7755 1.1806 14.8549C1.25734 14.9343 1.34896 14.9978 1.45024 15.0417C1.55151 15.0857 1.66046 15.1092 1.77085 15.1111H15.2292C15.3396 15.1092 15.4485 15.0857 15.5498 15.0417C15.6511 14.9978 15.7427 14.9343 15.8194 14.8549C15.8962 14.7755 15.9565 14.6818 15.997 14.5791C16.0376 14.4764 16.0574 14.3668 16.0556 14.2564V3.68804C16.0574 3.57765 16.0376 3.46797 15.997 3.36527C15.9565 3.26257 15.8962 3.16886 15.8194 3.08949C15.7427 3.01012 15.6511 2.94664 15.5498 2.90269C15.4485 2.85873 15.3396 2.83516 15.2292 2.83331Z" fill="#2776EA"/>
<path d="M3.77783 6.61108H4.72228V7.55553H3.77783V6.61108Z" fill="#2776EA"/>
<path d="M6.61108 6.61108H7.55553V7.55553H6.61108V6.61108Z" fill="#2776EA"/>
<path d="M9.44434 6.61108H10.3888V7.55553H9.44434V6.61108Z" fill="#2776EA"/>
<path d="M12.2778 6.61108H13.2223V7.55553H12.2778V6.61108Z" fill="#2776EA"/>
<path d="M3.77783 8.97223H4.72228V9.91667H3.77783V8.97223Z" fill="#2776EA"/>
<path d="M6.61108 8.97223H7.55553V9.91667H6.61108V8.97223Z" fill="#2776EA"/>
<path d="M9.44434 8.97223H10.3888V9.91667H9.44434V8.97223Z" fill="#2776EA"/>
<path d="M12.2778 8.97223H13.2223V9.91667H12.2778V8.97223Z" fill="#2776EA"/>
<path d="M3.77783 11.3333H4.72228V12.2778H3.77783V11.3333Z" fill="#2776EA"/>
<path d="M6.61108 11.3333H7.55553V12.2778H6.61108V11.3333Z" fill="#2776EA"/>
<path d="M9.44434 11.3333H10.3888V12.2778H9.44434V11.3333Z" fill="#2776EA"/>
<path d="M12.2778 11.3333H13.2223V12.2778H12.2778V11.3333Z" fill="#2776EA"/>
<path d="M4.72222 4.72224C4.84746 4.72224 4.96757 4.67248 5.05613 4.58393C5.14469 4.49537 5.19444 4.37525 5.19444 4.25001V1.41668C5.19444 1.29144 5.14469 1.17133 5.05613 1.08277C4.96757 0.99421 4.84746 0.944458 4.72222 0.944458C4.59698 0.944458 4.47687 0.99421 4.38831 1.08277C4.29975 1.17133 4.25 1.29144 4.25 1.41668V4.25001C4.25 4.37525 4.29975 4.49537 4.38831 4.58393C4.47687 4.67248 4.59698 4.72224 4.72222 4.72224Z" fill="#2776EA"/>
<path d="M12.2779 4.72224C12.4031 4.72224 12.5232 4.67248 12.6118 4.58393C12.7004 4.49537 12.7501 4.37525 12.7501 4.25001V1.41668C12.7501 1.29144 12.7004 1.17133 12.6118 1.08277C12.5232 0.99421 12.4031 0.944458 12.2779 0.944458C12.1526 0.944458 12.0325 0.99421 11.944 1.08277C11.8554 1.17133 11.8057 1.29144 11.8057 1.41668V4.25001C11.8057 4.37525 11.8554 4.49537 11.944 4.58393C12.0325 4.67248 12.1526 4.72224 12.2779 4.72224Z" fill="#2776EA"/>
<path d="M6.13892 2.83331H10.8611V3.77776H6.13892V2.83331Z" fill="#2776EA"/>
</g>
<defs>
<clipPath id="clip0_353_230">
<rect width="17" height="17" fill="white"/>
</clipPath>
</defs>
</svg>
