<svg width="19" height="13" viewBox="0 0 19 13" fill="none" xmlns="http://www.w3.org/2000/svg">
<path d="M12.2727 1.1101C12.7409 1.7192 12.9323 2.38648 12.8669 3.12008C12.8566 3.23526 12.856 3.35918 12.8099 3.46215C12.6743 3.76408 12.7839 3.91301 13.0801 4.05845C13.8693 4.44591 14.6403 4.86768 15.4137 5.28422C15.5651 5.36567 15.6584 5.37439 15.8026 5.24932C16.4852 4.6565 17.5475 4.62974 18.2519 5.16787C19.0023 5.7409 19.2155 6.72408 18.7619 7.52167C18.3143 8.30937 17.3398 8.67239 16.4525 8.38209C15.5645 8.09179 15.0291 7.24242 15.1612 6.34942C15.1739 6.26216 15.1587 6.11323 15.1036 6.08298C14.1751 5.57917 13.2388 5.08933 12.2927 4.59076C11.813 5.15798 11.217 5.51053 10.4932 5.67109C10.4302 5.68505 10.3503 5.80082 10.3491 5.87064C10.3382 6.51988 10.3491 7.1697 10.3394 7.81895C10.337 8.00104 10.4333 8.03304 10.5859 8.07434C12.4659 8.58222 13.1425 10.7231 11.8766 12.1432C11.1643 12.9425 9.96084 13.2177 8.92635 12.818C7.92154 12.4294 7.26438 11.4544 7.30678 10.413C7.35099 9.32338 8.07538 8.3978 9.145 8.1075C9.40241 8.03769 9.49387 7.94519 9.48418 7.67933C9.45995 7.02252 9.4763 6.36455 9.4763 5.74207C9.02205 5.56637 8.60474 5.40581 8.14079 5.22605C6.97426 6.3756 5.772 7.55948 4.55641 8.75791C5.44312 10.0785 4.93617 11.4381 4.08459 12.0739C3.06645 12.8337 1.69097 12.7703 0.767316 11.9238C-0.132716 11.0989 -0.256274 9.75388 0.477803 8.7678C1.11194 7.91552 2.47834 7.35994 3.93075 8.17266C5.12817 6.99285 6.32983 5.80781 7.54239 4.61287C6.79317 3.54185 6.73805 2.44698 7.39884 1.3015C7.39884 1.3015 7.76528 0.745915 7.97363 0.665632C9.15227 -0.169775 10.366 -0.217479 11.6543 0.514956M12.0111 2.85014C12.0092 1.73432 11.0789 0.84016 9.91905 0.838415C8.74344 0.837251 7.80222 1.74072 7.80767 2.86468C7.81312 3.97759 8.74283 4.87117 9.90391 4.87932C11.0717 4.88746 12.0129 3.9805 12.0111 2.85014ZM11.647 10.4834C11.6428 9.56539 10.8687 8.82132 9.91602 8.81957C8.953 8.81783 8.17653 9.56946 8.17592 10.5049C8.17532 11.4142 8.95664 12.1664 9.90755 12.1717C10.8621 12.1769 11.6519 11.4101 11.647 10.4834ZM0.866646 10.1978C0.868463 11.0518 1.61768 11.772 2.50499 11.7732C3.4129 11.7743 4.1597 11.0524 4.15364 10.1797C4.14758 9.3164 3.41351 8.60956 2.5165 8.60374C1.61708 8.59792 0.865435 9.32454 0.866646 10.1978ZM18.1241 6.64205C18.1271 6.07832 17.6638 5.62339 17.0812 5.61873C16.5039 5.61466 16.0188 6.07018 16.0115 6.62343C16.0049 7.17261 16.4888 7.64384 17.0618 7.64617C17.6481 7.64849 18.1211 7.2017 18.1241 6.64205Z" fill="#2776EA"/>
</svg>
