<svg width="18" height="20" viewBox="0 0 18 20" fill="none" xmlns="http://www.w3.org/2000/svg">
<path d="M9 16C8.06667 16 7.175 16.146 6.325 16.438C5.475 16.73 4.7 17.1673 4 17.75V18H14V17.75C13.3 17.1667 12.525 16.729 11.675 16.437C10.825 16.145 9.93334 15.9993 9 16ZM2 16.85C2.9 15.9667 3.946 15.271 5.138 14.763C6.33 14.255 7.61734 14.0007 9 14C10.3833 14 11.671 14.2543 12.863 14.763C14.055 15.2717 15.1007 15.9673 16 16.85V4H2V16.85ZM9 12C8.03334 12 7.20833 11.6583 6.525 10.975C5.84167 10.2917 5.5 9.46667 5.5 8.5C5.5 7.53334 5.84167 6.70834 6.525 6.025C7.20833 5.34167 8.03334 5 9 5C9.96667 5 10.7917 5.34167 11.475 6.025C12.1583 6.70834 12.5 7.53334 12.5 8.5C12.5 9.46667 12.1583 10.2917 11.475 10.975C10.7917 11.6583 9.96667 12 9 12ZM9 10C9.41667 10 9.771 9.854 10.063 9.562C10.355 9.27 10.5007 8.916 10.5 8.5C10.5 8.08334 10.354 7.729 10.062 7.437C9.77 7.145 9.416 6.99934 9 7C8.58333 7 8.229 7.146 7.937 7.438C7.645 7.73 7.49934 8.084 7.5 8.5C7.5 8.91667 7.646 9.271 7.938 9.563C8.23 9.855 8.584 10.0007 9 10ZM2 20C1.45 20 0.979002 19.804 0.587002 19.412C0.195002 19.02 -0.000664969 18.5493 1.69779e-06 18V4C1.69779e-06 3.45 0.196002 2.979 0.588002 2.587C0.980002 2.195 1.45067 1.99934 2 2H3V1C3 0.71667 3.096 0.479003 3.288 0.287003C3.48 0.0950034 3.71734 -0.000663206 4 3.46021e-06C4.28334 3.46021e-06 4.521 0.0960036 4.713 0.288004C4.905 0.480004 5.00067 0.717337 5 1V2H13V1C13 0.71667 13.096 0.479003 13.288 0.287003C13.48 0.0950034 13.7173 -0.000663206 14 3.46021e-06C14.2833 3.46021e-06 14.521 0.0960036 14.713 0.288004C14.905 0.480004 15.0007 0.717337 15 1V2H16C16.55 2 17.021 2.196 17.413 2.588C17.805 2.98 18.0007 3.45067 18 4V18C18 18.55 17.804 19.021 17.412 19.413C17.02 19.805 16.5493 20.0007 16 20H2ZM9 18H14H4H9Z" fill="#2776EA"/>
</svg>
