<svg width="13" height="13" viewBox="0 0 13 13" fill="none" xmlns="http://www.w3.org/2000/svg">
<path fill-rule="evenodd" clip-rule="evenodd" d="M11.1367 0C10.848 0 10.5833 -9.68575e-09 10.3687 0.0286667C10.1313 0.0606667 9.88133 0.135333 9.67533 0.342C9.46867 0.548 9.394 0.798 9.362 1.03533C9.33333 1.25067 9.33333 1.51533 9.33333 1.80333V10.53C9.33333 10.8187 9.33333 11.0833 9.362 11.298C9.394 11.5353 9.46867 11.7853 9.67533 11.9913C9.88133 12.198 10.1313 12.2727 10.3687 12.3047C10.584 12.3333 10.8487 12.3333 11.1367 12.3333H11.1967C11.4853 12.3333 11.75 12.3333 11.9647 12.3047C12.202 12.2727 12.452 12.198 12.658 11.9913C12.8647 11.7853 12.9393 11.5353 12.9713 11.298C13 11.0827 13 10.818 13 10.53V1.80333C13 1.51467 13 1.25 12.9713 1.03533C12.9393 0.798 12.8647 0.548 12.658 0.342C12.452 0.135333 12.202 0.0606667 11.9647 0.0286667C11.7493 -9.68575e-09 11.4847 0 11.1967 0H11.1367ZM10.45 1.048L10.4487 1.04867L10.448 1.05067C10.4336 1.08862 10.4242 1.12829 10.42 1.16867C10.4013 1.30867 10.4 1.50467 10.4 1.83333V10.5C10.4 10.8287 10.4013 11.0247 10.42 11.1647C10.4242 11.205 10.4336 11.2447 10.448 11.2827L10.4487 11.2847L10.4507 11.2853L10.4527 11.2867L10.4573 11.2887C10.472 11.2947 10.504 11.3047 10.5687 11.3133C10.7087 11.332 10.9047 11.3333 11.1667 11.3333C11.4953 11.3333 11.8247 11.332 11.9647 11.3133C12.0827 11.3133 12.0447 11.2997 12.0827 11.2853L12.0847 11.2847L12.0853 11.2827C12.0997 11.2447 12.1092 11.205 12.1133 11.1647C12.132 11.0247 12.1333 10.8287 12.1333 10.5V1.83333C12.1333 1.50467 12.132 1.30867 12.1133 1.16867C12.1091 1.12829 12.0997 1.08862 12.0853 1.05067L12.0847 1.04867L12.0827 1.048C12.0447 1.0336 12.005 1.02419 11.9647 1.02C11.8247 1.00133 11.4953 1 11.1667 1C10.838 1 10.7087 1.00133 10.5687 1.02C10.5283 1.0242 10.488 1.03361 10.45 1.048ZM6.47 2H6.53C6.81867 2 7.08333 2 7.298 2.02867C7.53533 2.06067 7.78533 2.13533 7.99133 2.342C8.198 2.548 8.27267 2.798 8.30467 3.03533C8.33333 3.25067 8.33333 3.51533 8.33333 3.80333V10.53C8.33333 10.8187 8.33333 11.0833 8.30467 11.298C8.27267 11.5353 8.198 11.7853 7.99133 11.9913C7.78533 12.198 7.53533 12.2727 7.298 12.3047C7.08267 12.3333 6.818 12.3333 6.53 12.3333H6.47C6.182 12.3333 5.91667 12.3333 5.702 12.3047C5.46467 12.2727 5.21467 12.198 5.00867 11.9913C4.802 11.7853 4.72733 11.5353 4.69533 11.298C4.66667 11.0827 4.66667 10.818 4.66667 10.53V3.80333C4.66667 3.51467 4.66667 3.25 4.69533 3.03533C4.72733 2.798 4.802 2.548 5.00867 2.342C5.21467 2.13533 5.46467 2.06067 5.702 2.02867C5.91733 2 6.182 2 6.47 2ZM5.71533 3.04867L5.71733 3.048L5.71533 11.2847L5.71467 11.2827C5.70025 11.2447 5.69084 11.205 5.68667 11.1647C5.668 11.0247 5.66667 10.8287 5.66667 10.5V3.83333C5.66667 3.50467 5.668 3.30867 5.68667 3.16867C5.69085 3.12829 5.70026 3.08862 5.71467 3.05067L5.71533 3.04867ZM5.71533 11.2847L5.71733 3.048L5.71933 3.04667L5.724 3.04467C5.75997 3.03196 5.79736 3.02367 5.83533 3.02C5.97533 3.00133 6.17133 3 6.5 3C6.82867 3 7.02467 3.00133 7.16467 3.02C7.20505 3.02419 7.24471 3.0336 7.28267 3.048L7.28467 3.04867L7.28533 3.05067C7.29974 3.08862 7.30915 3.12829 7.31333 3.16867C7.332 3.30867 7.33333 3.50467 7.33333 3.83333V10.5C7.33333 10.8287 7.332 11.0247 7.31333 11.1647C7.30916 11.205 7.29975 11.2447 7.28533 11.2827L7.28467 11.2847L7.28267 11.2853C7.28053 11.2866 7.2783 11.2877 7.276 11.2887C7.24003 11.3014 7.20264 11.3097 7.16467 11.3133C7.02467 11.332 6.82867 11.3333 6.5 11.3333C6.17133 11.3333 5.97533 11.332 5.83533 11.3133C5.79495 11.3091 5.75529 11.2997 5.71733 11.2853L5.71533 11.2847ZM1.80333 4.66667C1.51467 4.66667 1.25 4.66667 1.03533 4.69533C0.798 4.72733 0.548 4.802 0.342 5.00867C0.135333 5.21467 0.0606667 5.46467 0.0286667 5.702C-9.68575e-09 5.91733 0 6.182 0 6.47V10.53C0 10.8187 -9.68575e-09 11.0833 0.0286667 11.298C0.0606667 11.5353 0.135333 11.7853 0.342 11.9913C0.548 12.198 0.798 12.2727 1.03533 12.3047C1.25067 12.3333 1.51533 12.3333 1.80333 12.3333H1.86333C2.152 12.3333 2.41667 12.3333 2.63133 12.3047C2.86867 12.2727 3.11867 12.198 3.32467 11.9913C3.53133 11.7853 3.606 11.5353 3.638 11.298C3.66667 11.0827 3.66667 10.818 3.66667 10.53V6.47C3.66667 6.18133 3.66667 5.91667 3.638 5.702C3.606 5.46467 3.53133 5.21467 3.32467 5.00867C3.11867 4.802 2.86867 4.72733 2.63133 4.69533C2.416 4.66667 2.15133 4.66667 1.86333 4.66667H1.80333ZM1.05 5.71467L1.04867 5.71533L1.048 5.71733C1.03362 5.75529 1.02421 5.79496 1.02 5.83533C1.00133 5.97533 1 6.17133 1 6.5V10.5C1 10.8287 1.00133 11.0247 1.02 11.1647C1.02419 11.205 1.0336 11.2447 1.048 11.2827V11.284L1.05067 11.2853C1.08862 11.2997 1.12829 11.3091 1.16867 11.3133C1.30867 11.332 1.50467 11.3333 1.83333 11.3333C2.162 11.3333 2.358 11.332 2.498 11.3133C2.53838 11.3091 2.57805 11.2997 2.616 11.2853L2.618 11.2847L2.61867 11.2827L2.62 11.28L2.622 11.276C2.63472 11.24 2.643 11.2026 2.64667 11.1647C2.66533 11.0247 2.66667 10.8287 2.66667 10.5V6.5C2.66667 6.17133 2.66533 5.97533 2.64667 5.83533C2.64246 5.79496 2.63305 5.75529 2.61867 5.71733L2.618 5.71533L2.616 5.71467C2.57804 5.70028 2.53838 5.69086 2.498 5.68667C2.358 5.668 2.162 5.66667 1.83333 5.66667C1.50467 5.66667 1.30867 5.668 1.16867 5.68667C1.12829 5.69086 1.08796 5.70028 1.05 5.71467Z" fill="#2776EA"/>
</svg>
