<svg width="19" height="14" viewBox="0 0 19 14" fill="none" xmlns="http://www.w3.org/2000/svg">
<path d="M19 12.25V1.75C19 0.781667 18.2516 0 17.3245 0H1.67548C0.748383 0 0 0.781667 0 1.75V12.25C0 13.2183 0.748383 14 1.67548 14H17.3245C18.2516 14 19 13.2183 19 12.25ZM17.5367 1.62167C17.9053 2.00667 17.7043 2.40333 17.5032 2.60167L12.9683 6.94167L17.3245 11.6783C17.4586 11.8417 17.5479 12.0983 17.3915 12.2733C17.2463 12.46 16.9112 12.4483 16.766 12.3317L11.8848 7.98L9.49441 10.255L7.11523 7.98L2.23398 12.3317C2.08877 12.4483 1.75367 12.46 1.60847 12.2733C1.45209 12.0983 1.54145 11.8417 1.67548 11.6783L6.03175 6.94167L1.49677 2.60167C1.29571 2.40333 1.09465 2.00667 1.46326 1.62167C1.83186 1.23667 2.21164 1.42333 2.5244 1.70333L9.49441 7.58333L16.4756 1.70333C16.7884 1.42333 17.1681 1.23667 17.5367 1.62167Z" fill="white"/>
</svg>
