<svg width="21" height="21" viewBox="0 0 21 21" fill="none" xmlns="http://www.w3.org/2000/svg">
<path d="M10.5 5.45C13.2149 5.45 15.4295 7.59239 15.5452 10.2786L15.55 10.5022V11.55C15.55 12.19 15.7508 12.7589 16.0707 13.1717C16.3898 13.5834 16.8373 13.85 17.325 13.85C18.2538 13.85 19.0206 12.9069 19.094 11.74L19.0942 11.74L19.0943 11.7336L19.0999 11.5563L19.1 11.5563V11.55V10.5C19.1 5.75035 15.2496 1.9 10.5 1.9C5.75035 1.9 1.9 5.75035 1.9 10.5C1.9 15.2496 5.75035 19.1 10.5 19.1C11.7499 19.1 12.9608 18.8337 14.0718 18.3257C14.4987 18.1305 15.0031 18.3184 15.1983 18.7453C15.3935 19.1722 15.2056 19.6766 14.7787 19.8718C13.4472 20.4806 11.9954 20.8 10.5 20.8C4.81147 20.8 0.2 16.1885 0.2 10.5C0.2 4.81147 4.81147 0.2 10.5 0.2C16.0916 0.2 20.6426 4.65572 20.796 10.2102C20.796 10.2107 20.796 10.2111 20.796 10.2116L20.8 10.5V10.5014V11.55C20.8 13.75 19.264 15.55 17.325 15.55C16.1714 15.55 15.1668 14.9185 14.5362 13.9409L14.3958 13.7233L14.2208 13.9141C13.2981 14.9198 11.9728 15.55 10.5 15.55C7.71096 15.55 5.45 13.289 5.45 10.5C5.45 7.71096 7.71096 5.45 10.5 5.45ZM10.5 7.15C8.64985 7.15 7.15 8.64985 7.15 10.5C7.15 12.3502 8.64985 13.85 10.5 13.85C12.3502 13.85 13.85 12.3502 13.85 10.5C13.85 8.64985 12.3502 7.15 10.5 7.15Z" fill="#545454" stroke="white" stroke-width="0.4"/>
</svg>
