<svg width="21" height="18" viewBox="0 0 21 18" fill="none" xmlns="http://www.w3.org/2000/svg">
<path d="M4.69512 0C2.13796 0 0 2.16655 0 4.75609V13.2447C0 15.8335 2.13877 18 4.69512 18H16.3057C18.8612 18 21 15.8335 21 13.2439V4.75609C21 2.16736 18.8612 0 16.3049 0H4.69512ZM4.69512 1.63636H16.3057C17.9493 1.63636 19.3846 3.09027 19.3846 4.75609V5.72727H14.5385C14.0902 5.72727 13.7308 5.36318 13.7308 4.90909C13.7308 4.455 14.0902 4.09091 14.5385 4.09091C14.7527 4.09091 14.9581 4.00471 15.1096 3.85127C15.2611 3.69783 15.3462 3.48972 15.3462 3.27273C15.3462 3.05573 15.2611 2.84762 15.1096 2.69419C14.9581 2.54075 14.7527 2.45455 14.5385 2.45455C13.2098 2.45455 12.1154 3.56318 12.1154 4.90909C12.1154 5.96618 12.7971 6.86782 13.7308 7.21064V11.2754C12.7632 11.9414 12.1154 13.059 12.1154 14.3182C12.1154 15.0734 12.352 15.7754 12.7462 16.3636H8.25462C8.6629 15.7615 8.88246 15.0487 8.88461 14.3182C8.88461 13.0598 8.23685 11.9414 7.26923 11.2754V7.20982C8.20292 6.86782 8.88461 5.96618 8.88461 4.90909C8.88461 3.56318 7.79019 2.45455 6.46154 2.45455H4.84615C4.82086 2.45334 4.79552 2.45334 4.77023 2.45455C4.74521 2.45337 4.72014 2.45337 4.69512 2.45455C4.4809 2.47483 4.28342 2.58049 4.14611 2.74828C4.0088 2.91606 3.94291 3.13223 3.96294 3.34923C3.98297 3.56622 4.08728 3.76627 4.25291 3.90536C4.41854 4.04446 4.63194 4.1112 4.84615 4.09091H6.46154C6.90981 4.09091 7.26923 4.455 7.26923 4.90909C7.26923 5.36318 6.90981 5.72727 6.46154 5.72727H1.61538V4.75527C1.61538 3.09027 3.05065 1.63636 4.69512 1.63636ZM1.61538 7.36364H5.65385V10.6364H1.61538V7.36364ZM15.3462 7.36364H19.3846V10.6364H15.3462V7.36364ZM1.61538 12.2727H5.25C6.3315 12.2727 7.26923 13.2226 7.26923 14.3182C7.26923 15.4137 6.3315 16.3636 5.25 16.3636H4.69431C3.05065 16.3636 1.61538 14.9097 1.61538 13.2439V12.2727ZM15.75 12.2727H19.3846V13.2447C19.3846 14.9097 17.9493 16.3636 16.3049 16.3636H15.75C14.6685 16.3636 13.7308 15.4137 13.7308 14.3182C13.7308 13.2226 14.6685 12.2727 15.75 12.2727Z" fill="#2776EA"/>
</svg>
