<svg width="21" height="21" viewBox="0 0 21 21" fill="none" xmlns="http://www.w3.org/2000/svg">
<path d="M10.5 20C15.7467 20 20 15.7467 20 10.5C20 5.25329 15.7467 1 10.5 1C5.25329 1 1 5.25329 1 10.5C1 15.7467 5.25329 20 10.5 20Z" stroke="#2776EA" stroke-width="1.5" stroke-linecap="round" stroke-linejoin="round"/>
<path d="M8.30786 8.30779C8.30786 7.87419 8.43644 7.45033 8.67733 7.08981C8.91823 6.72928 9.26062 6.44829 9.66121 6.28236C10.0618 6.11643 10.5026 6.07301 10.9279 6.1576C11.3531 6.24219 11.7438 6.45099 12.0504 6.75759C12.357 7.06419 12.5658 7.45482 12.6504 7.88009C12.7349 8.30536 12.6915 8.74616 12.5256 9.14675C12.3597 9.54734 12.0787 9.88973 11.7181 10.1306C11.3576 10.3715 10.9338 10.5001 10.5002 10.5001V11.9616" stroke="#2776EA" stroke-width="1.5" stroke-linecap="round" stroke-linejoin="round"/>
<path d="M10.5 14.1538C10.2832 14.1538 10.0712 14.2181 9.89097 14.3385C9.71071 14.459 9.57021 14.6302 9.48725 14.8305C9.40428 15.0308 9.38258 15.2512 9.42487 15.4638C9.46717 15.6764 9.57157 15.8718 9.72487 16.0251C9.87816 16.1784 10.0735 16.2828 10.2861 16.3251C10.4987 16.3673 10.7191 16.3456 10.9194 16.2627C11.1197 16.1797 11.2909 16.0392 11.4114 15.859C11.5318 15.6787 11.5961 15.4668 11.5961 15.25C11.5923 14.9604 11.4756 14.6838 11.2709 14.4791C11.0661 14.2743 10.7895 14.1576 10.5 14.1538Z" fill="#2776EA"/>
</svg>
