<svg width="16" height="16" viewBox="0 0 16 16" fill="none" xmlns="http://www.w3.org/2000/svg">
<path fill-rule="evenodd" clip-rule="evenodd" d="M0 7.65C-1.49699e-08 8.65461 0.197873 9.64939 0.582322 10.5775C0.96677 11.5057 1.53026 12.349 2.24063 13.0594C2.951 13.7697 3.79433 14.3332 4.72247 14.7177C5.65061 15.1021 6.64539 15.3 7.65 15.3C8.65461 15.3 9.64939 15.1021 10.5775 14.7177C11.5057 14.3332 12.349 13.7697 13.0594 13.0594C13.7697 12.349 14.3332 11.5057 14.7177 10.5775C15.1021 9.64939 15.3 8.65461 15.3 7.65C15.3 5.62109 14.494 3.67529 13.0594 2.24063C11.6247 0.80598 9.67891 0 7.65 0C5.62109 0 3.67529 0.80598 2.24063 2.24063C0.80598 3.67529 3.02331e-08 5.62109 0 7.65ZM14.4 7.65C14.4 9.44021 13.6888 11.1571 12.423 12.423C11.1571 13.6888 9.44021 14.4 7.65 14.4C5.85979 14.4 4.1429 13.6888 2.87703 12.423C1.61116 11.1571 0.9 9.44021 0.9 7.65C0.9 5.85979 1.61116 4.1429 2.87703 2.87703C4.1429 1.61116 5.85979 0.9 7.65 0.9C9.44021 0.9 11.1571 1.61116 12.423 2.87703C13.6888 4.1429 14.4 5.85979 14.4 7.65Z" fill="#2776EA"/>
<path fill-rule="evenodd" clip-rule="evenodd" d="M4.5 7.65001C4.5 11.6064 5.7978 14.85 7.65 14.85C9.5022 14.85 10.8 11.6064 10.8 7.65001C10.8 3.69361 9.5022 0.450012 7.65 0.450012C5.7978 0.450012 4.5 3.69361 4.5 7.65001ZM9.9 7.65001C9.9 11.1501 8.7795 13.95 7.65 13.95C6.5205 13.95 5.4 11.1501 5.4 7.65001C5.4 4.14991 6.5205 1.35001 7.65 1.35001C8.7795 1.35001 9.9 4.14991 9.9 7.65001Z" fill="#2776EA"/>
<path d="M2.01145 3.4308L2.61445 2.763C2.71075 2.8494 2.81335 2.934 2.92315 3.0159C4.10935 3.9051 5.98135 4.4469 8.02165 4.4469C9.76135 4.4469 11.385 4.0536 12.5712 3.3759C12.8445 3.22126 13.1027 3.04138 13.3425 2.8386L13.9275 3.5226C13.6593 3.7521 13.3551 3.9636 13.0185 4.1562C11.6892 4.9167 9.91165 5.3469 8.02165 5.3469C5.79865 5.3469 3.73585 4.7502 2.38315 3.7359C2.25462 3.63966 2.13059 3.53845 2.01145 3.4308ZM2.01145 11.88L2.61445 12.546C2.71075 12.4596 2.81335 12.375 2.92315 12.294C4.10935 11.4048 5.98135 10.863 8.02165 10.863C9.76135 10.863 11.385 11.2554 12.5712 11.934C12.8601 12.0996 13.1184 12.2796 13.3425 12.4704L13.9275 11.7864C13.6449 11.5473 13.3406 11.3351 13.0185 11.1528C11.6892 10.3932 9.91165 9.963 8.02165 9.963C5.79865 9.963 3.73585 10.5597 2.38315 11.5731C2.25175 11.6721 2.12755 11.7747 2.01145 11.88ZM0.449951 8.1V7.2H14.85V8.1H0.449951Z" fill="#2776EA"/>
</svg>
