<svg width="30" height="28" viewBox="0 0 30 28" fill="none" xmlns="http://www.w3.org/2000/svg">
<path d="M9.7315 10.745V17H8.7055V14.264H5.7625V17H4.7365V10.745H5.7625V13.427H8.7055V10.745H9.7315ZM11.9282 11.573V13.409H14.0882V14.246H11.9282V16.163H14.3582V17H10.9022V10.736H14.3582V11.573H11.9282ZM16.4679 16.172H18.5829V17H15.4419V10.745H16.4679V16.172ZM23.635 12.608C23.635 12.926 23.56 13.226 23.41 13.508C23.26 13.79 23.02 14.021 22.69 14.201C22.36 14.375 21.937 14.462 21.421 14.462H20.287V17H19.261V10.745H21.421C21.901 10.745 22.306 10.829 22.636 10.997C22.972 11.159 23.221 11.381 23.383 11.663C23.551 11.945 23.635 12.26 23.635 12.608ZM21.421 13.625C21.811 13.625 22.102 13.538 22.294 13.364C22.486 13.184 22.582 12.932 22.582 12.608C22.582 11.924 22.195 11.582 21.421 11.582H20.287V13.625H21.421Z" fill="#2776EA"/>
<g clip-path="url(#clip0_203_279)">
<path d="M23.1893 -0.00483704H13.7506C12.206 0.00669356 10.7101 0.522635 9.50233 1.46039C8.29453 2.39815 7.44471 3.7035 7.08891 5.16745C5.00283 5.7411 3.17391 6.97831 1.89361 8.68192C0.613317 10.3855 -0.0446758 12.4575 0.0244747 14.5676C0.0936252 16.6778 0.885963 18.7047 2.2752 20.3253C3.66443 21.9459 5.57062 23.067 7.69001 23.5099L6.93988 26.6356C6.90127 26.7975 6.90042 26.9659 6.9374 27.1283C6.97437 27.2906 7.0482 27.4428 7.15352 27.5737C7.25884 27.7046 7.39294 27.8108 7.54596 27.8846C7.69897 27.9584 7.867 27.9978 8.03773 28C8.29523 28.0093 8.5464 27.9209 8.73819 27.7532L13.6513 23.7083H17.8539C19.2305 23.7062 20.5909 23.4187 21.8446 22.8648C23.0982 22.3109 24.2164 21.5034 25.1248 20.496C26.0331 19.4886 26.7109 18.3044 27.113 17.0221C27.515 15.7397 27.6321 14.3887 27.4565 13.0589C28.2513 12.4262 28.8925 11.6299 29.334 10.7273C29.7754 9.82469 30.0063 8.83807 30.0099 7.83826V6.71574C30.0178 5.83756 29.8473 4.96653 29.5083 4.15275C29.1693 3.33896 28.6684 2.59849 28.0345 1.97391C27.4007 1.34933 26.6463 0.852976 25.8147 0.513388C24.9832 0.1738 24.0909 -0.00231932 23.1893 -0.00483704ZM17.8291 22.4842H13.4227C13.276 22.4806 13.1335 22.5326 13.0253 22.6293L8.21659 26.5775L9.01638 23.118C9.03829 23.0377 9.04253 22.9538 9.02884 22.8718C9.01515 22.7898 8.98383 22.7115 8.93694 22.642C8.89005 22.5726 8.82863 22.5136 8.75672 22.4689C8.6848 22.4242 8.60401 22.3948 8.51961 22.3826C6.39355 22.1259 4.44711 21.0918 3.0745 19.4898C1.7019 17.8877 1.00574 15.8374 1.12699 13.7542C1.24824 11.671 2.17785 9.71048 3.72755 8.26978C5.27724 6.82907 7.33118 6.01585 9.4734 5.99481H17.8341C20.0791 5.99481 22.2322 6.86345 23.8197 8.40963C25.4072 9.95581 26.2991 12.0529 26.2991 14.2395C26.2991 16.4261 25.4072 18.5232 23.8197 20.0694C22.2322 21.6156 20.0791 22.4842 17.8341 22.4842H17.8291ZM28.7978 7.84793C28.7972 9.29084 28.224 10.6777 27.1982 11.7187C26.623 9.73185 25.3957 7.98312 23.7038 6.73979C22.0119 5.49646 19.9485 4.82695 17.8291 4.83359C9.06605 4.83359 9.31445 4.78521 8.46497 4.93036C8.85944 3.86463 9.58014 2.94245 10.5298 2.28832C11.4795 1.6342 12.6123 1.27964 13.7755 1.27251H23.2141C24.7082 1.27762 26.1396 1.85866 27.1952 2.88862C28.2508 3.91857 28.8449 5.31367 28.8475 6.76897V7.8431L28.7978 7.84793Z" fill="#2776EA"/>
</g>
<defs>
<clipPath id="clip0_203_279">
<rect width="30" height="28" fill="white"/>
</clipPath>
</defs>
</svg>
