<svg width="25" height="24" viewBox="0 0 25 24" fill="none" xmlns="http://www.w3.org/2000/svg">
<path d="M24.4826 11.7097L13.1237 0.26075C13.042 0.178092 12.9448 0.112516 12.8379 0.0677732C12.7309 0.0230305 12.6163 0 12.5005 0C12.3847 0 12.2701 0.0230305 12.1632 0.0677732C12.0562 0.112516 11.9591 0.178092 11.8773 0.26075L0.518442 11.7097C0.187522 12.0435 0 12.4969 0 12.9697C0 13.9516 0.791451 14.7499 1.76491 14.7499H2.96174V22.9194C2.96174 23.4118 3.35608 23.8095 3.84419 23.8095H10.7356V17.5788H13.8242V23.8095H21.1568C21.645 23.8095 22.0393 23.4118 22.0393 22.9194V14.7499H23.2361C23.7049 14.7499 24.1544 14.5636 24.4853 14.227C25.172 13.5316 25.172 12.4051 24.4826 11.7097Z" fill="#2776EA"/>
</svg>
