<svg width="21" height="20" viewBox="0 0 21 20" fill="none" xmlns="http://www.w3.org/2000/svg">
<path d="M13.5254 0H0.644043V12.8814H8.10167V20H20.983V7.11864H13.5254V0ZM6.25019 3.05085L4.12256 9.12288H5.5593L5.90531 8.13559H8.10167V11.5254H1.99998V1.35593H12.1695V7.11864H9.34455L7.91947 3.05085H6.25019ZM7.78904 6.77966H6.3804L7.08472 4.76958L7.78904 6.77966ZM19.6271 8.47458V18.6441H9.4576V8.47458H19.6271Z" fill="#2776EA"/>
<path d="M13.4164 14.5968C13.5461 14.8051 13.6889 15.0049 13.8439 15.1951C13.3524 15.4602 12.7942 15.593 12.1693 15.5934V16.9493C13.1922 16.9493 14.1062 16.6778 14.8812 16.1517C15.6562 16.6778 16.5701 16.9493 17.593 16.9493V15.5934C16.9694 15.5934 16.4113 15.4605 15.9185 15.1948C16.0735 15.0047 16.2162 14.805 16.3459 14.5968C16.7367 13.9615 17.0241 13.2681 17.1974 12.5426H17.932V11.1866H15.5591V10.1697H14.2032V11.1866H11.8303V12.5426H12.565C12.7382 13.2681 13.0256 13.9615 13.4164 14.5968ZM15.7935 12.5426C15.6532 13.0118 15.4523 13.4608 15.196 13.8782C15.1002 14.032 14.9951 14.1799 14.8812 14.3209C14.7755 14.1903 14.6775 14.0537 14.5875 13.9119C14.3208 13.4853 14.1126 13.0247 13.9687 12.5426H15.7935Z" fill="#2776EA"/>
</svg>
