<svg width="16" height="21" viewBox="0 0 16 21" fill="none" xmlns="http://www.w3.org/2000/svg">
<path d="M13.9999 9.1H12.5999V6.3C12.5999 3.57 10.4299 1.4 7.6999 1.4C4.9699 1.4 2.7999 3.57 2.7999 6.3V9.1H1.3999V6.3C1.3999 2.8 4.1999 0 7.6999 0C11.1999 0 13.9999 2.8 13.9999 6.3V9.1Z" fill="#545454"/>
<path d="M13.3 21H2.1C0.91 21 0 20.09 0 18.9V10.5C0 9.31002 0.91 8.40002 2.1 8.40002H13.3C14.49 8.40002 15.4 9.31002 15.4 10.5V18.9C15.4 20.09 14.49 21 13.3 21ZM2.1 9.80002C1.68 9.80002 1.4 10.08 1.4 10.5V18.9C1.4 19.32 1.68 19.6 2.1 19.6H13.3C13.72 19.6 14 19.32 14 18.9V10.5C14 10.08 13.72 9.80002 13.3 9.80002H2.1Z" fill="#545454"/>
<path d="M7.70029 14C8.47349 14 9.10029 13.3732 9.10029 12.6C9.10029 11.8268 8.47349 11.2 7.70029 11.2C6.92709 11.2 6.30029 11.8268 6.30029 12.6C6.30029 13.3732 6.92709 14 7.70029 14Z" fill="#545454"/>
<path d="M8.0499 12.6H7.3499L6.6499 16.8H8.7499L8.0499 12.6Z" fill="#545454"/>
</svg>
