<svg width="26" height="18" viewBox="0 0 26 18" fill="none" xmlns="http://www.w3.org/2000/svg">
<path d="M23.3144 1H2.6858C1.75489 1 1.00024 1.75347 1.00024 2.68293V15.6309C1.00024 16.5603 1.75489 17.3138 2.6858 17.3138H23.3144C24.2453 17.3138 24.9999 16.5603 24.9999 15.6309V2.68293C24.9999 1.75347 24.2453 1 23.3144 1Z" stroke="#D1D1D1" stroke-miterlimit="10"/>
<path d="M23.3144 3.19983H2.6858C1.75489 3.19983 1.00024 3.9533 1.00024 4.88276V15.6309C1.00024 16.5603 1.75489 17.3138 2.6858 17.3138H23.3144C24.2453 17.3138 24.9999 16.5603 24.9999 15.6309V4.88276C24.9999 3.9533 24.2453 3.19983 23.3144 3.19983Z" stroke="#D1D1D1" stroke-miterlimit="10"/>
<path d="M1.00024 14.9455V7.08617C1.0002 6.86513 1.04378 6.64624 1.12847 6.44201C1.21316 6.23778 1.33732 6.05221 1.49386 5.89589C1.65039 5.73957 1.83623 5.61557 2.04076 5.53097C2.24529 5.44638 2.46451 5.40283 2.6859 5.40283H23.3144C23.5357 5.40283 23.7549 5.44637 23.9594 5.53095C24.1639 5.61553 24.3498 5.7395 24.5063 5.89579C24.6628 6.05207 24.787 6.23761 24.8717 6.4418C24.9564 6.646 24.9999 6.86485 24.9999 7.08587V14.9452" stroke="#D1D1D1" stroke-miterlimit="10"/>
<path d="M25 14.8749V7.52588H16.1773C15.9913 7.52588 15.8396 7.69014 15.8411 7.89271C15.8411 7.90127 15.8411 7.90983 15.8411 7.91839C15.8411 9.62292 14.5745 11.0027 13.0063 11.0064C11.4346 11.0099 10.1589 9.62608 10.1589 7.91839C10.1589 7.91034 10.1589 7.90239 10.1589 7.89434C10.1603 7.69146 10.0094 7.52629 9.82274 7.52629H1V14.8753" stroke="#D1D1D1" stroke-miterlimit="10"/>
</svg>
