<svg width="23" height="23" viewBox="0 0 23 23" fill="none" xmlns="http://www.w3.org/2000/svg">
<path d="M17.9215 22.5497L17.92 22.5497C13.6862 22.5442 9.62734 20.8599 6.63357 17.8661C3.63983 14.8724 1.95552 10.8136 1.95 6.57979C1.95003 5.35191 2.43783 4.17432 3.30607 3.30607C4.17436 2.43779 5.352 1.95 6.57993 1.95L6.58145 1.94999C6.83959 1.94803 7.0973 1.97145 7.35085 2.01994L7.35082 2.02011L7.35914 2.02134C7.60377 2.05754 7.84425 2.11766 8.07713 2.20084L8.07819 2.20121C8.2178 2.2502 8.3422 2.33478 8.4391 2.44658C8.536 2.55839 8.60204 2.69355 8.63068 2.8387L8.63059 2.83872L8.63191 2.8445L10.0703 9.14412C10.1017 9.28255 10.0979 9.42663 10.0593 9.56323C10.0207 9.69982 9.94853 9.82458 9.84933 9.9261L9.84928 9.92606L9.84582 9.92979C9.8116 9.96664 9.79439 9.98477 9.76702 10.0066C9.73796 10.0297 9.69325 10.0601 9.60595 10.1107C9.42984 10.2128 9.10964 10.3807 8.46158 10.7179L8.29317 10.8056L8.37191 10.9783C9.42602 13.2908 11.2755 15.1479 13.5836 16.2114L13.7562 16.291L13.8445 16.1226C14.1869 15.4694 14.3575 15.1465 14.4609 14.9689C14.5122 14.8809 14.543 14.8358 14.5664 14.8064C14.5884 14.7788 14.6066 14.7615 14.6434 14.7274L14.6434 14.7274L14.6471 14.7239C14.7486 14.6247 14.8734 14.5525 15.01 14.5139C15.1466 14.4753 15.2906 14.4715 15.4291 14.5029L21.728 15.9411C21.7281 15.9411 21.7282 15.9412 21.7282 15.9412C21.8687 15.9738 21.9985 16.0416 22.1055 16.1382C22.2125 16.2348 22.2932 16.3572 22.34 16.4936L22.3408 16.4958C22.4254 16.7338 22.4891 16.9786 22.5313 17.2276C22.5717 17.4803 22.5919 17.7358 22.5917 17.9916C22.5728 19.2138 22.0713 20.3789 21.1967 21.2328C20.3217 22.0871 19.1443 22.5605 17.9215 22.5497ZM6.57993 3.64997L6.57916 3.64997C5.80321 3.65294 5.05988 3.9625 4.51119 4.51119C3.9625 5.05988 3.65294 5.80321 3.64997 6.57916L3.64997 6.58008C3.65279 10.3638 5.1571 13.9917 7.83257 16.6671C10.508 19.3426 14.1359 20.8469 17.9196 20.8497L17.9205 20.8497C18.6965 20.8468 19.4398 20.5372 19.9885 19.9885C20.5372 19.4398 20.8468 18.6965 20.8497 17.9205V17.9198V17.9191V17.9184V17.9177V17.9171V17.9164V17.9157V17.915V17.9143V17.9137V17.913V17.9123V17.9116V17.911V17.9103V17.9096V17.9089V17.9083V17.9076V17.9069V17.9062V17.9055V17.9049V17.9042V17.9035V17.9028V17.9022V17.9015V17.9008V17.9001V17.8995V17.8988V17.8981V17.8974V17.8968V17.8961V17.8954V17.8947V17.894V17.8934V17.8927V17.892V17.8913V17.8907V17.89V17.8893V17.8886V17.888V17.8873V17.8866V17.8859V17.8852V17.8846V17.8839V17.8832V17.8825V17.8819V17.8812V17.8805V17.8798V17.8792V17.8785V17.8778V17.8771V17.8764V17.8758V17.8751V17.8744V17.8737V17.8731V17.8724V17.8717V17.871V17.8704V17.8697V17.869V17.8683V17.8677V17.867V17.8663V17.8656V17.8649V17.8643V17.8636V17.8629V17.8622V17.8616V17.8609V17.8602V17.8595V17.8589V17.8582V17.8575V17.8568V17.8561V17.8555V17.8548V17.8541V17.8534V17.8528V17.8521V17.8514V17.8507V17.8501V17.8494V17.8487V17.848V17.8473V17.8467V17.846V17.8453V17.8446V17.844V17.8433V17.8426V17.8419V17.8413V17.8406V17.8399V17.8392V17.8386V17.8379V17.8372V17.8365V17.8358V17.8352V17.8345V17.8338V17.8331V17.8325V17.8318V17.8311V17.8304V17.8298V17.8291V17.8284V17.8277V17.827V17.8264V17.8257V17.825V17.8243V17.8237V17.823V17.8223V17.8216V17.821V17.8203V17.8196V17.8189V17.8182V17.8176V17.8169V17.8162V17.8155V17.8149V17.8142V17.8135V17.8128V17.8122V17.8115V17.8108V17.8101V17.8095V17.8088V17.8081V17.8074V17.8067V17.8061V17.8054V17.8047V17.804V17.8034V17.8027V17.802V17.8013V17.8007V17.8V17.7993V17.7986V17.7979V17.7973V17.7966V17.7959V17.7952V17.7946V17.7939V17.7932V17.7925V17.7919V17.7912V17.7905V17.7898V17.7891V17.7885V17.7878V17.7871V17.7864V17.7858V17.7851V17.7844V17.7837V17.7831V17.7824V17.7817V17.781V17.7803V17.7797V17.779V17.7783V17.7776V17.777V17.7763V17.7756V17.7749V17.7743V17.7736V17.7729V17.7722V17.7716V17.7709V17.7702V17.7695V17.7688V17.7682V17.7675V17.7668V17.7661V17.7655V17.7648V17.7641V17.7634V17.7628V17.7621V17.7614V17.7607V17.76V17.7594V17.7587V17.758V17.7573V17.7567V17.756V17.7553V17.7546V17.754V17.7533V17.7526V17.7519V17.7512V17.7506V17.7499V17.7492V17.7485V17.7479V17.7472V17.7465V17.7458V17.7452V17.7445V17.7438V17.7431V17.7425V17.7418V17.7411V17.7404V17.7397V17.7391V17.7384V17.7377V17.737V17.7364V17.7357V17.735V17.7343V17.7337V17.733V17.7323V17.7316V17.7309V17.7303V17.7296V17.7289V17.7282V17.7276V17.7269V17.7262V17.7255V17.7249V17.7242V17.7235V17.7228V17.7221V17.7215V17.7208V17.7201V17.7194V17.7188V17.7181V17.7174V17.7167V17.7161V17.7154V17.7147V17.714V17.7134V17.7127V17.712V17.7113V17.7106V17.71V17.7093V17.7086V17.7079V17.7073V17.7066V17.7059V17.7052V17.7046V17.7039V17.7032V17.7025V17.7018V17.7012V17.7005V17.6998V17.6991V17.6985V17.6978V17.6971V17.6964V17.6958V17.6951V17.6944V17.6937V17.693V17.6924V17.6917V17.691V17.6903V17.6897V17.689V17.6883V17.6876V17.687V17.6863V17.6856V17.6849V17.6843V17.6836V17.6829V17.6822V17.6815V17.6809V17.6802V17.6795V17.6788V17.6782V17.6775V17.6768V17.6761V17.6755V17.6748V17.6741V17.6734V17.6727V17.6721V17.6714V17.6707V17.67V17.6694V17.6687V17.668V17.6673V17.6667V17.666V17.6653V17.6646V17.6639V17.6633V17.6626V17.6619V17.6612V17.6606V17.6599V17.6592V17.6585V17.6579V17.6572V17.6565V17.6558V17.6552V17.6545V17.6538V17.6531V17.6524V17.6518V17.6511V17.6504V17.6497V17.6491V17.6484V17.6477V17.647V17.6464V17.6457V17.645V17.6443V17.6436V17.643V17.6423V17.6416V17.6409V17.6403V17.6396V17.6389V17.6382V17.6376V17.6369V17.6362V17.6355V17.6348V17.6342V17.6335V17.6328V17.6321V17.6315V17.6308V17.6301V17.6294V17.6288V17.6281V17.6274V17.6267V17.6261V17.6254V17.6247V17.624V17.6233V17.6227V17.622V17.6213V17.6206V17.62V17.6193V17.6186V17.6179V17.6173V17.6166V17.6159V17.6152V17.6145V17.6139V17.6132V17.6125V17.6118V17.6112V17.6105V17.6098V17.6091V17.6085V17.6078V17.6071V17.6064V17.6057V17.6051V17.6044V17.6037V17.603V17.6024V17.6017V17.601V17.6003V17.5997V17.599V17.5983V17.5976V17.597V17.5963V17.5956V17.5949V17.5942V17.5936V17.5929V17.5922V17.5915V17.5909V17.5902V17.5895V17.5888V17.5882V17.5875V17.5868V17.5861V17.5854V17.5848V17.5841V17.5834V17.5827V17.5821V17.5814V17.5807V17.58V17.5794V17.5787V17.578V17.5773V17.5766V17.576V17.5753V17.5746V17.5739V17.5733V17.4141L20.6947 17.3784L15.8227 16.2549L15.6727 16.2203L15.6009 16.3565L15.2964 16.934L15.2957 16.9354C15.0532 17.4041 14.865 17.7598 14.6411 17.9654C14.5355 18.0623 14.4295 18.1179 14.3123 18.1365C14.1936 18.1554 14.044 18.1395 13.8474 18.0599L13.8474 18.0597L13.8397 18.057C12.1277 17.4442 10.5738 16.4577 9.29068 15.1693C8.0076 13.8809 7.02765 12.3228 6.42201 10.6083L6.41892 10.5995L6.41503 10.5911C6.3332 10.4138 6.31837 10.2783 6.33753 10.1697C6.35676 10.0608 6.41421 9.9563 6.51728 9.84824C6.73315 9.62191 7.10145 9.42524 7.56286 9.18379L8.13804 8.90143L8.28044 8.83153L8.24479 8.67695L7.12131 3.80503L7.08555 3.64997H6.92642L6.57993 3.64997Z" fill="#545454" stroke="white" stroke-width="0.4"/>
</svg>
