<svg width="25" height="25" viewBox="0 0 25 25" fill="none" xmlns="http://www.w3.org/2000/svg">
<path d="M12.6249 13.3125C12.552 13.3021 12.4583 13.3021 12.3749 13.3125C10.5416 13.25 9.08325 11.75 9.08325 9.90629C9.08325 8.02087 10.6041 6.48962 12.4999 6.48962C14.3853 6.48962 15.9166 8.02087 15.9166 9.90629C15.9062 11.75 14.4583 13.25 12.6249 13.3125Z" stroke="#D1D1D1" stroke-linecap="round" stroke-linejoin="round"/>
<path d="M19.5209 20.1875C17.6667 21.8854 15.2084 22.9167 12.5001 22.9167C9.79175 22.9167 7.33341 21.8854 5.47925 20.1875C5.58341 19.2083 6.20841 18.25 7.323 17.5C10.1772 15.6042 14.8438 15.6042 17.6772 17.5C18.7917 18.25 19.4167 19.2083 19.5209 20.1875Z" stroke="#D1D1D1" stroke-linecap="round" stroke-linejoin="round"/>
<path d="M12.4999 22.9167C18.2529 22.9167 22.9166 18.253 22.9166 12.5C22.9166 6.74707 18.2529 2.08337 12.4999 2.08337C6.74695 2.08337 2.08325 6.74707 2.08325 12.5C2.08325 18.253 6.74695 22.9167 12.4999 22.9167Z" stroke="#D1D1D1" stroke-linecap="round" stroke-linejoin="round"/>
</svg>
