<svg width="18" height="17" viewBox="0 0 18 17" fill="none" xmlns="http://www.w3.org/2000/svg">
<path d="M7.49975 16.2917C7.49975 16.4795 7.42074 16.6597 7.28009 16.7925C7.13944 16.9254 6.94868 17 6.74978 17H1.49995C1.10214 17 0.720621 16.8507 0.439325 16.5851C0.15803 16.3194 0 15.9591 0 15.5833V1.41667C0 1.04094 0.15803 0.680609 0.439325 0.414932C0.720621 0.149255 1.10214 0 1.49995 0H6.74978C6.94868 0 7.13944 0.0746279 7.28009 0.207466C7.42074 0.340304 7.49975 0.520472 7.49975 0.708333C7.49975 0.896195 7.42074 1.07636 7.28009 1.2092C7.13944 1.34204 6.94868 1.41667 6.74978 1.41667H1.49995V15.5833H6.74978C6.94868 15.5833 7.13944 15.658 7.28009 15.7908C7.42074 15.9236 7.49975 16.1038 7.49975 16.2917ZM17.78 7.99885L14.0302 4.45719C13.8894 4.32428 13.6986 4.24961 13.4996 4.24961C13.3005 4.24961 13.1097 4.32428 12.969 4.45719C12.8282 4.5901 12.7492 4.77037 12.7492 4.95833C12.7492 5.1463 12.8282 5.32657 12.969 5.45948L15.4392 7.79167H6.74978C6.55087 7.79167 6.36011 7.86629 6.21947 7.99913C6.07882 8.13197 5.9998 8.31214 5.9998 8.5C5.9998 8.68786 6.07882 8.86803 6.21947 9.00087C6.36011 9.13371 6.55087 9.20833 6.74978 9.20833H15.4392L12.969 11.5405C12.8282 11.6734 12.7492 11.8537 12.7492 12.0417C12.7492 12.2296 12.8282 12.4099 12.969 12.5428C13.1097 12.6757 13.3005 12.7504 13.4996 12.7504C13.6986 12.7504 13.8894 12.6757 14.0302 12.5428L17.78 9.00115C17.8498 8.93536 17.9051 8.85724 17.9428 8.77125C17.9806 8.68526 18 8.59309 18 8.5C18 8.40691 17.9806 8.31474 17.9428 8.22875C17.9051 8.14276 17.8498 8.06464 17.78 7.99885Z" fill="#2776EA"/>
</svg>
