<svg width="21" height="21" viewBox="0 0 21 21" fill="none" xmlns="http://www.w3.org/2000/svg">
<path d="M11.0776 2.20337L11.0513 2.26462L8.51384 8.15337H6.02009C5.42509 8.15337 4.85634 8.27587 4.34009 8.49462L5.87134 4.83712L5.90634 4.74962L5.96759 4.60962C5.98509 4.55712 6.00259 4.50462 6.02884 4.46087C7.17509 1.80962 8.47009 1.20587 11.0776 2.20337Z" stroke="#2776EA" stroke-width="1.5" stroke-linecap="round" stroke-linejoin="round"/>
<path d="M15.7937 8.32837C15.3999 8.20587 14.9799 8.15337 14.5599 8.15337H8.51367L11.0512 2.26462L11.0774 2.20337C11.2087 2.24712 11.3312 2.30837 11.4624 2.36087L13.3962 3.17462C14.4724 3.62087 15.2249 4.08462 15.6799 4.64462C15.7674 4.74962 15.8374 4.84587 15.8987 4.95962C15.9774 5.08212 16.0387 5.20462 16.0737 5.33587C16.1087 5.41462 16.1349 5.49337 16.1524 5.56337C16.3887 6.29837 16.2487 7.19962 15.7937 8.32837Z" stroke="#2776EA" stroke-width="1.5" stroke-linecap="round" stroke-linejoin="round"/>
<path d="M18.8315 12.4236V14.1298C18.8315 14.3048 18.8228 14.4798 18.814 14.6548C18.6478 17.7086 16.9415 19.2486 13.704 19.2486H6.879C6.669 19.2486 6.459 19.2311 6.25775 19.2048C3.47525 19.0211 1.98775 17.5336 1.804 14.7511C1.77775 14.5498 1.76025 14.3398 1.76025 14.1298V12.4236C1.76025 10.6648 2.82775 9.15106 4.35025 8.49481C4.87525 8.27606 5.43525 8.15356 6.03025 8.15356H14.5703C14.999 8.15356 15.419 8.21482 15.804 8.32857C17.5453 8.86232 18.8315 10.4898 18.8315 12.4236Z" stroke="#2776EA" stroke-width="1.5" stroke-linecap="round" stroke-linejoin="round"/>
<path d="M5.87125 4.83716L4.34 8.49466C2.8175 9.15091 1.75 10.6647 1.75 12.4234V9.85966C1.75 7.37466 3.5175 5.30091 5.87125 4.83716Z" stroke="#2776EA" stroke-width="1.5" stroke-linecap="round" stroke-linejoin="round"/>
<path d="M18.8288 9.8592V12.4229C18.8288 10.4979 17.5513 8.8617 15.8013 8.3367C16.2563 7.1992 16.3875 6.3067 16.1688 5.56295C16.1513 5.4842 16.125 5.40545 16.09 5.33545C17.7175 6.17545 18.8288 7.8992 18.8288 9.8592Z" stroke="#2776EA" stroke-width="1.5" stroke-linecap="round" stroke-linejoin="round"/>
</svg>
